<svg xmlns="http://www.w3.org/2000/svg" viewBox="0 0 100 100">
    <path 
     style="text-indent:0;text-transform:none;block-progression:tb" 
     d="M51.267 10.283c.423 1.579 1.632 2.882 3.152 3.873l-4.244 7.373c-.261.458-.083 1.113.375 1.375.457.261 1.111.083 1.373-.375l4.274-7.404c1.493.646 3.14.978 4.743.875.575.059 1.135-.48 1.099-1.058-.037-.578-.66-1.042-1.224-.91-1.127.072-2.407-.208-3.588-.688l.686-1.187c.382-.61-.155-1.55-.873-1.53-.358 0-.706.214-.874.53l-.718 1.25c-1.188-.808-2.052-1.815-2.277-2.656a1.031 1.031 0 00-1.03-.75c-.745.162-.994.733-.874 1.282zm22.622-1.25c-.48.06-.878.515-.874 1 0 1.925.287 3.378.78 4.53l-7.208 3.592c-.533.184-.82.879-.571 1.386.249.508.973.705 1.445.394l7.364-3.686c.779.985 1.666 1.7 2.465 2.5.366.38 1.046.389 1.424.02.377-.37.382-1.051.01-1.426-.779-.781-1.485-1.362-2.058-2l.78-.406c.433-.193.683-.725.556-1.182a1.033 1.033 0 00-1.087-.724c-.458.133-.872.399-1.31.625-.355-.852-.593-1.96-.593-3.624.004-.567-.56-1.07-1.123-1zm-31.95 5.998c-.48.06-.878.515-.875 1v1.436c-1.425-.104-2.662-.51-3.276-1.124a1.015 1.015 0 00-.842-.312c-.756.074-1.142 1.192-.593 1.718 1.163 1.164 2.883 1.659 4.711 1.75v8.528c-.007.528.471 1.014.999 1.014.527 0 1.006-.486.998-1.014v-8.591c1.618-.181 3.222-.672 4.556-1.562.433-.295.56-.957.265-1.39-.294-.434-.956-.56-1.388-.266-.94.627-2.177 1.011-3.433 1.187v-1.374c.004-.568-.56-1.071-1.123-1zm-9.05 2.999a1.024 1.024 0 00-.78.78c-.355 1.471-.613 2.438-.936 3.093l-1.341-1.53a1.017 1.017 0 00-.905-.344c-.731.092-1.105 1.157-.593 1.687l1.373 1.53c-.623.285-1.495.55-2.808.813-.515.098-.894.656-.796 1.171.098.516.656.895 1.17.797 1.662-.333 2.879-.691 3.807-1.218l5.242 5.904c.35.397 1.03.437 1.424.084.394-.353.43-1.035.073-1.427l-5.242-5.873c.802-1.104 1.038-2.444 1.467-4.217.054-1.077-.588-1.314-1.154-1.25zm-7.956 9.997c-.585.09-.99.789-.78 1.343.51 1.512.735 2.438.749 3.124l-2.84-.468c-.522-.033-1.028.414-1.06.937-.033.523.413 1.03.936 1.062l2.215.375c-.4.513-.961 1.118-1.778 1.937-.372.375-.367 1.057.01 1.426.378.37 1.058.36 1.425-.02 1.15-1.152 2.031-1.999 2.558-2.968l7.551 1.25c.944.063 1.152-.431 1.217-.75.127-.56-.332-1.178-.905-1.218L26.9 32.839c.056-1.137-.29-2.392-.874-4.124a1.032 1.032 0 00-1.092-.687zm35.227 2.53c-.976 1.722-1.494 3.121-1.623 4.468h-8.486c-.529-.01-1.015.47-1.015 1 0 .528.486 1.008 1.015.999h8.611c.24 1.343.758 2.677 1.435 4.374.189.49.805.764 1.295.576.49-.188.765-.804.578-1.295-.61-1.524-1.046-2.667-1.28-3.655h1.342c.528.01 1.015-.47 1.015-1 0-.529-.487-1.008-1.015-1h-1.498c.119-.95.52-1.995 1.373-3.498.372-.635-.237-1.578-.967-1.5-.409.07-.593.374-.78.531zm-18.097 1.5c-2.194 0-3.994 1.802-3.994 3.999 0 1.24.604 2.326 1.498 3.061-8.392 20.422-7.265 35.57 1.622 51.39.254.458.885.629 1.342.375.457-.253.659-.885.406-1.343-2.188-3.893-3.886-7.708-5.086-11.559 3.881-.123 7.594-1.17 10.39-3.842 2.982-2.85 4.805-7.444 4.805-14.121-.163-.934-.685-1.156-1.435-.875-7.534 3.772-10.965 6.984-14.665 15.589-2.44-10.376-1.15-21.253 4.4-34.77.23.042.474.094.717.094 2.194 0 3.994-1.803 3.994-4 0-2.196-1.8-3.998-3.994-3.998zm0 2c1.115 0 1.997.882 1.997 1.999 0 1.116-.882 1.999-1.997 1.999a1.983 1.983 0 01-1.997-2c0-1.116.882-1.999 1.997-1.999zm-7.457 5.091l-6.615 3.593c-.705-.813-1.784-1.556-3.37-2.562a1.007 1.007 0 00-.655-.156c-.816.098-1.105 1.41-.406 1.843 1.33.843 2.117 1.396 2.621 1.875l-2.558 1.406c-.526.203-.786.907-.52 1.404.266.497.995.67 1.456.345l2.496-1.343c.066.736.031 1.782.031 3.467-.007.528.47 1.014.998 1.014s1.006-.486.999-1.014c0-2.053.14-3.336-.156-4.498l6.615-3.624c.407-.218.621-.743.482-1.184-.282-.674-.777-.71-1.418-.566zm13.323 1.875c-.78.09-1.119 1.296-.5 1.78l6.272 5.03c-.636.753-1.194 1.674-1.591 2.905-.275.516.023 1.248.58 1.424.556.176 1.22-.25 1.292-.83.341-1.058.746-1.73 1.248-2.28l2.184 1.749c.408.328 1.079.255 1.406-.155.327-.41.252-1.08-.158-1.407l-1.84-1.468c.789-.534 1.72-1.12 2.807-1.937a1.03 1.03 0 00.361-1.156c-.35-.735-1.06-.702-1.546-.437-1.177.883-2.266 1.475-3.276 2.218l-6.49-5.218a1.01 1.01 0 00-.75-.218zm-3.932 2.968c-.042.01-.084.018-.124.03-.527.09-.92.663-.812 1.188l1.31 7.841c-1.44.424-2.753 1.552-4.118 3.374-.32.425-.224 1.104.201 1.423.426.32 1.104.222 1.422-.205 1.152-1.538 2.009-2.259 2.839-2.561l.343 2.124c.09.523.648.918 1.17.828.523-.09.917-.648.827-1.172l-.312-1.843c.8.156 1.746.462 2.933.937.492.26 1.181.01 1.39-.507.21-.516-.108-1.178-.641-1.336-1.496-.599-2.774-1.096-4.025-1.218l-1.342-8.028c-.062-.502-.557-.91-1.06-.875zm6.927 17.807c-.302 5.232-1.806 8.72-4.056 10.871-2.125 2.031-5.01 2.868-8.144 3.124 3.273-7.724 6.087-10.735 12.2-13.995z" 
     overflow="visible" 
     fill="#ffffff" />
</svg>